<svg xmlns="http://www.w3.org/2000/svg" viewBox="0 0 100 100" width="100" height="100">
  <defs>
    <linearGradient id="coverG" x1="0%" y1="0%" x2="100%" y2="100%">
      <stop offset="0%" style="stop-color:#c8913a"/>
      <stop offset="100%" style="stop-color:#d4a843"/>
    </linearGradient>
    <linearGradient id="spineG" x1="0%" y1="0%" x2="100%" y2="0%">
      <stop offset="0%" style="stop-color:#6b4d2e"/>
      <stop offset="100%" style="stop-color:#8a6035"/>
    </linearGradient>
    <linearGradient id="pageG" x1="0%" y1="0%" x2="100%" y2="0%">
      <stop offset="0%" style="stop-color:#ddd0bb"/>
      <stop offset="100%" style="stop-color:#f0e8da"/>
    </linearGradient>
    <filter id="s">
      <feDropShadow dx="1" dy="2" stdDeviation="2" flood-color="#000" flood-opacity="0.4"/>
    </filter>
  </defs>
  <rect width="100" height="100" rx="18" fill="#1a1008"/>
  <circle cx="50" cy="50" r="38" fill="#c8913a" fill-opacity="0.05"/>
  <g transform="translate(16, 10)" filter="url(#s)">
    <path d="M 44 4 L 70 6 L 68 80 L 42 78 Z" fill="url(#pageG)"/>
    <path d="M 38 4 L 46 4 L 44 78 L 36 78 Z" fill="url(#spineG)"/>
    <path d="M 4 4 L 40 4 L 38 78 L 2 78 Z" fill="url(#coverG)"/>
    <circle cx="22" cy="38" r="16" fill="#1a1008" fill-opacity="0.65"/>
    <circle cx="22" cy="38" r="13.5" fill="none" stroke="#d4a843" stroke-width="1.2" stroke-opacity="0.85"/>
    <circle cx="22" cy="38" r="9" fill="none" stroke="#d4a843" stroke-width="0.8" stroke-opacity="0.45"/>
    <circle cx="22" cy="38" r="4" fill="#d4a843" fill-opacity="0.95"/>
    <line x1="22" y1="38" x2="22" y2="25.5" stroke="#d4a843" stroke-width="1.8" stroke-linecap="round"/>
  </g>
</svg>
