<svg xmlns="http://www.w3.org/2000/svg" viewBox="0 0 512 512" width="512" height="512">
  <defs>
    <clipPath id="round"><rect x="0" y="0" width="512" height="512" rx="104"/></clipPath>
    
  <linearGradient id="bg" x1="0" y1="0" x2="0" y2="1">
    <stop offset="0" stop-color="#24160a"/><stop offset="1" stop-color="#120b05"/>
  </linearGradient>
  <radialGradient id="glow" cx="0.5" cy="0.62" r="0.55">
    <stop offset="0" stop-color="#c8913a" stop-opacity="0.42"/>
    <stop offset="1" stop-color="#c8913a" stop-opacity="0"/>
  </radialGradient>
  <radialGradient id="vig" cx="0.5" cy="0.45" r="0.75">
    <stop offset="0.55" stop-color="#000000" stop-opacity="0"/>
    <stop offset="1" stop-color="#000000" stop-opacity="0.5"/>
  </radialGradient>
  <linearGradient id="cover" x1="0" y1="0" x2="0" y2="1">
    <stop offset="0" stop-color="#d4a843"/><stop offset="1" stop-color="#a56a1f"/>
  </linearGradient>
  <linearGradient id="pageL" x1="0" y1="0" x2="1" y2="0">
    <stop offset="0" stop-color="#f4eee0"/><stop offset="1" stop-color="#d8cbb0"/>
  </linearGradient>
  <linearGradient id="pageR" x1="0" y1="0" x2="1" y2="0">
    <stop offset="0" stop-color="#d8cbb0"/><stop offset="1" stop-color="#f4eee0"/>
  </linearGradient>
  <linearGradient id="gutter" x1="0" y1="0" x2="1" y2="0">
    <stop offset="0" stop-color="#5a4022" stop-opacity="0"/>
    <stop offset="0.5" stop-color="#3a2712" stop-opacity="0.55"/>
    <stop offset="1" stop-color="#5a4022" stop-opacity="0"/>
  </linearGradient>
  <filter id="blurBg" x="-10%" y="-10%" width="120%" height="120%">
    <feGaussianBlur stdDeviation="2.4"/>
  </filter>
  <filter id="bookShadow" x="-30%" y="-30%" width="160%" height="160%">
    <feDropShadow dx="0" dy="10" stdDeviation="12" flood-color="#000" flood-opacity="0.55"/>
  </filter>

  </defs>
  <g clip-path="url(#round)">
    <rect width="512" height="512" fill="url(#bg)"/>
    <g filter="url(#blurBg)" opacity="0.96"><rect x="46" y="150" width="420" height="13" rx="2" fill="#241608"/><rect x="46" y="150" width="420" height="3" fill="#3a2817"/><rect x="52" y="77" width="26" height="73" rx="1.5" fill="#9b3a1c"/><rect x="52" y="77" width="3" height="73" fill="#fff" fill-opacity="0.10"/><rect x="55" y="97" width="20" height="4" rx="1" fill="#000" fill-opacity="0.18"/><rect x="83" y="73" width="19" height="77" rx="1.5" fill="#7a5c3a"/><rect x="83" y="73" width="3" height="77" fill="#fff" fill-opacity="0.10"/><rect x="86" y="95" width="13" height="4" rx="1" fill="#000" fill-opacity="0.18"/><rect x="105" y="57" width="26" height="93" rx="1.5" fill="#48633f"/><rect x="105" y="57" width="3" height="93" fill="#fff" fill-opacity="0.10"/><rect x="108" y="83" width="20" height="4" rx="1" fill="#000" fill-opacity="0.18"/><rect x="134" y="67" width="25" height="83" rx="1.5" fill="#9b3a1c"/><rect x="134" y="67" width="3" height="83" fill="#fff" fill-opacity="0.10"/><rect x="137" y="90" width="19" height="4" rx="1" fill="#000" fill-opacity="0.18"/><rect x="162" y="74" width="17" height="76" rx="1.5" fill="#5c7a5e"/><rect x="162" y="74" width="3" height="76" fill="#fff" fill-opacity="0.10"/><rect x="165" y="95" width="11" height="4" rx="1" fill="#000" fill-opacity="0.18"/><rect x="186" y="80" width="25" height="70" rx="1.5" fill="#48633f"/><rect x="186" y="80" width="3" height="70" fill="#fff" fill-opacity="0.10"/><rect x="189" y="100" width="19" height="4" rx="1" fill="#000" fill-opacity="0.18"/><rect x="215" y="60" width="27" height="90" rx="1.5" fill="#48633f"/><rect x="215" y="60" width="3" height="90" fill="#fff" fill-opacity="0.10"/><rect x="218" y="85" width="21" height="4" rx="1" fill="#000" fill-opacity="0.18"/><rect x="248" y="66" width="19" height="84" rx="1.5" fill="#7a3320"/><rect x="248" y="66" width="3" height="84" fill="#fff" fill-opacity="0.10"/><rect x="251" y="90" width="13" height="4" rx="1" fill="#000" fill-opacity="0.18"/><rect x="272" y="80" width="28" height="70" rx="1.5" fill="#7a5c3a"/><rect x="272" y="80" width="3" height="70" fill="#fff" fill-opacity="0.10"/><rect x="275" y="100" width="22" height="4" rx="1" fill="#000" fill-opacity="0.18"/><rect x="306" y="72" width="21" height="78" rx="1.5" fill="#7a5c3a"/><rect x="306" y="72" width="3" height="78" fill="#fff" fill-opacity="0.10"/><rect x="309" y="94" width="15" height="4" rx="1" fill="#000" fill-opacity="0.18"/><rect x="331" y="70" width="28" height="80" rx="1.5" fill="#b5762a"/><rect x="331" y="70" width="3" height="80" fill="#fff" fill-opacity="0.10"/><rect x="334" y="92" width="22" height="4" rx="1" fill="#000" fill-opacity="0.18"/><rect x="362" y="77" width="22" height="73" rx="1.5" fill="#8a4b2f"/><rect x="362" y="77" width="3" height="73" fill="#fff" fill-opacity="0.10"/><rect x="365" y="97" width="16" height="4" rx="1" fill="#000" fill-opacity="0.18"/><rect x="389" y="72" width="25" height="78" rx="1.5" fill="#9b3a1c"/><rect x="389" y="72" width="3" height="78" fill="#fff" fill-opacity="0.10"/><rect x="392" y="94" width="19" height="4" rx="1" fill="#000" fill-opacity="0.18"/><rect x="420" y="77" width="24" height="73" rx="1.5" fill="#6b4d2e"/><rect x="420" y="77" width="3" height="73" fill="#fff" fill-opacity="0.10"/><rect x="423" y="97" width="18" height="4" rx="1" fill="#000" fill-opacity="0.18"/><rect x="38" y="236" width="436" height="13" rx="2" fill="#241608"/><rect x="38" y="236" width="436" height="3" fill="#3a2817"/><rect x="44" y="161" width="24" height="75" rx="1.5" fill="#7a3320"/><rect x="44" y="161" width="3" height="75" fill="#fff" fill-opacity="0.10"/><rect x="47" y="182" width="18" height="4" rx="1" fill="#000" fill-opacity="0.18"/><rect x="73" y="164" width="25" height="72" rx="1.5" fill="#b5762a"/><rect x="73" y="164" width="3" height="72" fill="#fff" fill-opacity="0.10"/><rect x="76" y="184" width="19" height="4" rx="1" fill="#000" fill-opacity="0.18"/><rect x="101" y="163" width="26" height="73" rx="1.5" fill="#c8913a"/><rect x="101" y="163" width="3" height="73" fill="#fff" fill-opacity="0.10"/><rect x="104" y="183" width="20" height="4" rx="1" fill="#000" fill-opacity="0.18"/><rect x="130" y="163" width="29" height="73" rx="1.5" fill="#b5762a"/><rect x="130" y="163" width="3" height="73" fill="#fff" fill-opacity="0.10"/><rect x="133" y="183" width="23" height="4" rx="1" fill="#000" fill-opacity="0.18"/><rect x="165" y="156" width="20" height="80" rx="1.5" fill="#8a4b2f"/><rect x="165" y="156" width="3" height="80" fill="#fff" fill-opacity="0.10"/><rect x="168" y="178" width="14" height="4" rx="1" fill="#000" fill-opacity="0.18"/><rect x="189" y="159" width="21" height="77" rx="1.5" fill="#5c7a5e"/><rect x="189" y="159" width="3" height="77" fill="#fff" fill-opacity="0.10"/><rect x="192" y="181" width="15" height="4" rx="1" fill="#000" fill-opacity="0.18"/><rect x="215" y="149" width="27" height="87" rx="1.5" fill="#b5762a"/><rect x="215" y="149" width="3" height="87" fill="#fff" fill-opacity="0.10"/><rect x="218" y="173" width="21" height="4" rx="1" fill="#000" fill-opacity="0.18"/><rect x="249" y="165" width="26" height="71" rx="1.5" fill="#48633f"/><rect x="249" y="165" width="3" height="71" fill="#fff" fill-opacity="0.10"/><rect x="252" y="185" width="20" height="4" rx="1" fill="#000" fill-opacity="0.18"/><rect x="279" y="156" width="18" height="80" rx="1.5" fill="#6b4d2e"/><rect x="279" y="156" width="3" height="80" fill="#fff" fill-opacity="0.10"/><rect x="282" y="178" width="12" height="4" rx="1" fill="#000" fill-opacity="0.18"/><rect x="302" y="150" width="30" height="86" rx="1.5" fill="#48633f"/><rect x="302" y="150" width="3" height="86" fill="#fff" fill-opacity="0.10"/><rect x="305" y="174" width="24" height="4" rx="1" fill="#000" fill-opacity="0.18"/><rect x="336" y="160" width="26" height="76" rx="1.5" fill="#9b3a1c"/><rect x="336" y="160" width="3" height="76" fill="#fff" fill-opacity="0.10"/><rect x="339" y="181" width="20" height="4" rx="1" fill="#000" fill-opacity="0.18"/><rect x="366" y="169" width="29" height="67" rx="1.5" fill="#8a4b2f"/><rect x="366" y="169" width="3" height="67" fill="#fff" fill-opacity="0.10"/><rect x="369" y="188" width="23" height="4" rx="1" fill="#000" fill-opacity="0.18"/><rect x="401" y="168" width="20" height="68" rx="1.5" fill="#5c7a5e"/><rect x="401" y="168" width="3" height="68" fill="#fff" fill-opacity="0.10"/><rect x="404" y="187" width="14" height="4" rx="1" fill="#000" fill-opacity="0.18"/><rect x="428" y="148" width="30" height="88" rx="1.5" fill="#8a4b2f"/><rect x="428" y="148" width="3" height="88" fill="#fff" fill-opacity="0.10"/><rect x="431" y="173" width="24" height="4" rx="1" fill="#000" fill-opacity="0.18"/></g>
    <rect width="512" height="512" fill="url(#vig)"/>
    <ellipse cx="256" cy="330" rx="230" ry="150" fill="url(#glow)"/>
    
    <g filter="url(#bookShadow)">
      <path d="M256 300 Q172 288 80 282 Q92 344 108 400 Q190 416 256 408
               Q322 416 404 400 Q420 344 432 282 Q340 288 256 300 Z" fill="url(#cover)"/>
      <path d="M256 300 Q172 288 80 282 Q92 344 108 400 Q190 416 256 408 L256 300 Z"
            fill="#000" fill-opacity="0.08"/>
      <path d="M96 292 Q104 344 118 394 L118 384 Q104 336 98 286 Z" fill="#cdbf9f"/>
      <path d="M416 292 Q408 344 394 394 L394 384 Q408 336 414 286 Z" fill="#cdbf9f"/>
      <path d="M256 306 Q176 296 96 288 Q104 342 118 392 Q190 404 256 400 Z" fill="url(#pageL)"/>
      <path d="M256 306 Q336 296 416 288 Q408 342 394 392 Q322 404 256 400 Z" fill="url(#pageR)"/>
      <line x1="132" y1="330" x2="236" y2="332" stroke="#7a5c3a" stroke-opacity="0.38" stroke-width="3" stroke-linecap="round"/><line x1="132" y1="342" x2="236" y2="344" stroke="#7a5c3a" stroke-opacity="0.38" stroke-width="3" stroke-linecap="round"/><line x1="132" y1="354" x2="236" y2="356" stroke="#7a5c3a" stroke-opacity="0.38" stroke-width="3" stroke-linecap="round"/><line x1="132" y1="366" x2="236" y2="368" stroke="#7a5c3a" stroke-opacity="0.38" stroke-width="3" stroke-linecap="round"/><line x1="132" y1="378" x2="236" y2="380" stroke="#7a5c3a" stroke-opacity="0.38" stroke-width="3" stroke-linecap="round"/><line x1="380" y1="330" x2="276" y2="332" stroke="#7a5c3a" stroke-opacity="0.38" stroke-width="3" stroke-linecap="round"/><line x1="380" y1="342" x2="276" y2="344" stroke="#7a5c3a" stroke-opacity="0.38" stroke-width="3" stroke-linecap="round"/><line x1="380" y1="354" x2="276" y2="356" stroke="#7a5c3a" stroke-opacity="0.38" stroke-width="3" stroke-linecap="round"/><line x1="380" y1="366" x2="276" y2="368" stroke="#7a5c3a" stroke-opacity="0.38" stroke-width="3" stroke-linecap="round"/><line x1="380" y1="378" x2="276" y2="380" stroke="#7a5c3a" stroke-opacity="0.38" stroke-width="3" stroke-linecap="round"/>
      <rect x="246" y="300" width="20" height="102" fill="url(#gutter)"/>
      <line x1="256" y1="306" x2="256" y2="400" stroke="#2a1c0e" stroke-opacity="0.35" stroke-width="2"/>
      <path d="M256 306 Q176 296 96 288" fill="none" stroke="#fffaf0" stroke-opacity="0.5" stroke-width="2"/>
      <path d="M256 306 Q336 296 416 288" fill="none" stroke="#fffaf0" stroke-opacity="0.5" stroke-width="2"/>
      <path d="M249 300 L263 300 L262 448 L250 448 Z" fill="#9b3a1c"/>
      <path d="M256 300 L263 300 L262 448 L256 448 Z" fill="#000" fill-opacity="0.20"/>
      <path d="M247 445 h18 v5 a9 9 0 0 1 -18 0 Z" fill="#7c2f16"/>
      <line x1="256" y1="450" x2="256" y2="460" stroke="#6b4d2e" stroke-width="4"/>
      <g transform="rotate(-4 256 474)">
        <rect x="194" y="446" width="124" height="60" rx="14" fill="#f4e8ca" stroke="#8a6035" stroke-width="3.5"/>
        <rect x="194" y="446" width="124" height="20" rx="14" fill="#fff" fill-opacity="0.30"/>
        <circle cx="256" cy="461" r="6" fill="#120b05" fill-opacity="0.6"/>
        <text x="256" y="495" text-anchor="middle" font-family="Georgia, 'Times New Roman', serif"
              font-size="42" font-weight="700" letter-spacing="1.5" fill="#2a1c0e">A.-K.</text>
      </g>
    </g>
    <rect width="512" height="150" fill="#fff" fill-opacity="0.03"/>
  </g>
</svg>