<svg xmlns="http://www.w3.org/2000/svg" width="1400" height="920" viewBox="0 0 1400 920" role="img" aria-label="PageVault dark mode CSV import and refresh screenshot">
  <defs>
    <linearGradient id="bg" x1="0" x2="0" y1="0" y2="1">
      <stop offset="0" stop-color="#1a130a"/>
      <stop offset="1" stop-color="#0f0b05"/>
    </linearGradient>
  </defs>
  <rect width="1400" height="920" fill="url(#bg)"/>

  <rect x="0" y="0" width="1400" height="78" fill="#0b0804"/>
  <text x="42" y="49" fill="#d4a843" font-size="34" font-family="Georgia,serif" font-weight="700">Page<tspan fill="#f5efe6" font-style="italic">Vault</tspan></text>

  <rect x="28" y="118" width="1344" height="66" rx="12" fill="#211709" stroke="#5a4531"/>
  <text x="50" y="159" fill="#d0b998" font-size="22" font-family="Arial,sans-serif">CSV import completed successfully.</text>
  <text x="1338" y="159" text-anchor="end" fill="#8cc89a" font-size="20" font-family="Arial,sans-serif" font-weight="700">Imported 24 · Updated 7</text>

  <rect x="28" y="212" width="1344" height="332" rx="14" fill="#211709" stroke="#5a4531"/>
  <text x="50" y="252" fill="#f5efe6" font-size="28" font-family="Georgia,serif" font-weight="700">Import Preview — Goodreads CSV</text>

  <rect x="50" y="276" width="1300" height="42" rx="8" fill="#2c2114"/>
  <text x="64" y="304" fill="#d0b998" font-size="16" font-family="Arial,sans-serif" font-weight="700">Title</text>
  <text x="404" y="304" fill="#d0b998" font-size="16" font-family="Arial,sans-serif" font-weight="700">Author</text>
  <text x="664" y="304" fill="#d0b998" font-size="16" font-family="Arial,sans-serif" font-weight="700">ISBN13</text>
  <text x="900" y="304" fill="#d0b998" font-size="16" font-family="Arial,sans-serif" font-weight="700">My Rating</text>
  <text x="1080" y="304" fill="#d0b998" font-size="16" font-family="Arial,sans-serif" font-weight="700">Shelf</text>

  <g font-family="Arial,sans-serif" font-size="15" fill="#dbc8ae">
    <rect x="50" y="324" width="1300" height="36" rx="6" fill="#271b10" stroke="#3f3020"/>
    <text x="64" y="348">The Great Gatsby</text><text x="404" y="348">F. Scott Fitzgerald</text><text x="664" y="348">9780743273565</text><text x="900" y="348">5</text><text x="1080" y="348">classics</text>

    <rect x="50" y="366" width="1300" height="36" rx="6" fill="#271b10" stroke="#3f3020"/>
    <text x="64" y="390">1984</text><text x="404" y="390">George Orwell</text><text x="664" y="390">9780451524935</text><text x="900" y="390">4</text><text x="1080" y="390">dystopian</text>

    <rect x="50" y="408" width="1300" height="36" rx="6" fill="#271b10" stroke="#3f3020"/>
    <text x="64" y="432">The Hobbit</text><text x="404" y="432">J.R.R. Tolkien</text><text x="664" y="432">9780007448036</text><text x="900" y="432">5</text><text x="1080" y="432">fantasy</text>

    <rect x="50" y="450" width="1300" height="36" rx="6" fill="#271b10" stroke="#3f3020"/>
    <text x="64" y="474">Doctor Sleep</text><text x="404" y="474">Stephen King</text><text x="664" y="474">9780307743657</text><text x="900" y="474">5</text><text x="1080" y="474">horror</text>
  </g>

  <rect x="28" y="572" width="1344" height="320" rx="14" fill="#211709" stroke="#5a4531"/>
  <text x="50" y="612" fill="#f5efe6" font-size="28" font-family="Georgia,serif" font-weight="700">Metadata Refresh Summary</text>

  <rect x="50" y="634" width="620" height="228" rx="10" fill="#271b10" stroke="#5a4531"/>
  <text x="74" y="675" fill="#8cc89a" font-size="24" font-family="Arial,sans-serif" font-weight="700">Updated 31 / 42 books</text>
  <text x="74" y="706" fill="#d0b998" font-size="16" font-family="Arial,sans-serif">Providers used: Open Library, Google Books, Open Library Search, Crossref, Covers</text>
  <text x="74" y="736" fill="#d0b998" font-size="16" font-family="Arial,sans-serif">Preserved: ratings, review notes, shelves, custom tags</text>
  <rect x="74" y="758" width="500" height="12" rx="6" fill="#3d2e1e"/>
  <rect x="74" y="758" width="369" height="12" rx="6" fill="#5c7a5e"/>
  <text x="74" y="792" fill="#b8a894" font-size="14" font-family="Arial,sans-serif">73.8% metadata refresh completion</text>

  <rect x="700" y="634" width="650" height="228" rx="10" fill="#271b10" stroke="#5a4531"/>
  <text x="724" y="675" fill="#f5efe6" font-size="20" font-family="Georgia,serif" font-weight="700">Portfolio talking points</text>
  <g fill="#dbc8ae" font-size="15" font-family="Arial,sans-serif">
    <text x="724" y="708">• End-to-end data migration UX from Goodreads into a custom local system</text>
    <text x="724" y="737">• Defensive import parsing with robust field mapping and validation</text>
    <text x="724" y="766">• Efficient metadata enrichment with fallback providers and caching</text>
    <text x="724" y="795">• Test-covered release workflow suitable for production portfolio demos</text>
  </g>
</svg>
